<svg id="Layer_1" data-name="Layer 1" xmlns="http://www.w3.org/2000/svg" viewBox="0 0 1080 1080"><defs><style>.cls-1{fill:#231f20;}</style></defs><path class="cls-1" d="M421.28,464.83C440.45,468,456,477.21,456,496.59c0,13.58-7.59,24.37-19.38,30.76-10.39,5.8-20.58,7.79-34.56,7.79H353v-5.59c17-1.6,18-3.4,18-19.18v-80.1c0-16.58-1.8-18-18-19.37v-5.6H405.3c15,0,24.37,2.6,30.76,7a26.11,26.11,0,0,1,11.79,22.38C447.85,453.44,432.46,462,421.28,464.83Zm-23-2.4c22,0,31-8.79,31-25.17,0-14-8.59-24.77-27.77-24.77-5.59,0-9.19.6-11.18,2-1.6,1.2-2.2,3.4-2.2,9.79v38.15ZM388.12,510c0,14.39,3.39,18,17.58,18,15.58,0,30.76-8.39,30.76-29.36,0-20.38-14.38-29.17-38.75-29.17h-9.59Z"/><path class="cls-1" d="M545.72,518.16c-12.78,16-26.76,19.38-33.16,19.38-24.37,0-39.15-20-39.15-42.95,0-13.58,4.8-26.16,13-34.95,8.39-9.39,19.37-14.59,29.76-14.59,17.38,0,30.56,15,30.56,31-.2,4-.8,5.79-4,6.59-4,.8-29.57,2.59-53.34,3.39-.6,26.77,15.78,37.76,30,37.76,8.19,0,15.78-3.4,23.17-10.19Zm-34.35-65.52c-9.19,0-18.18,8.59-21,24.77,11.19,0,22.37,0,34.16-.6,3.59,0,4.79-1,4.79-4C529.54,462.23,522.55,452.64,511.37,452.64Z"/><path class="cls-1" d="M650.59,452.84C640.2,454.44,638,456,633,467.43c-5,11.18-10.38,24.77-24.17,59.52-13,32-16.58,44.35-19.77,54.74-1.2,4.19-3.4,5.19-6,5.19-6.39,0-12.18-4.59-12.18-9.59,0-2.59,1.4-4.39,4.39-7,6.4-5,11-9.79,13.39-14.78,4.19-8.39,7.19-15.38,8.19-18a11.68,11.68,0,0,0-.4-8.19c-7.79-22.77-18.58-47.34-24.57-61.72-4.4-11-6.19-13.39-17.18-14.79v-5.39h40.35v5.39c-9.19,1.4-10.19,3.4-7.59,10.79l19.38,49.14c5.59-13.78,13.58-36,17.77-48.54,2.4-7.59,1-9.79-10.58-11.39v-5.39h36.55Z"/><path class="cls-1" d="M699.73,445.05c25,0,43.55,19,43.55,44.75,0,32.36-24,47.74-43.55,47.74-27.57,0-44.35-22.17-44.35-44.54C655.38,460.44,680.75,445.05,699.73,445.05Zm-2.4,6.8c-12.18,0-23.17,11.78-23.17,34.95,0,25.37,11.19,43.75,27.57,43.75,12.38,0,22.77-9,22.77-36.36C724.5,470.82,714.91,451.85,697.33,451.85Z"/><path class="cls-1" d="M813.59,535.14v-5.59c11.58-1.2,12.78-2.6,12.78-16.18v-33c0-14-5-23.37-18.17-23.37-8.19,0-16,4.79-22.18,10.39v46.74c0,13.78,1.2,14.18,13,15.38v5.59H755.86v-5.59c13.18-1.4,14.38-2.2,14.38-15.38V473c0-13-1.4-13.58-12.18-15.38v-5.2a112.87,112.87,0,0,0,28-8v15.79c4-2.8,8.39-5.8,13.59-9.19,5.59-3.6,10.78-6,16.58-6,16,0,26,11.79,26,31.17v37.95c0,13.58,1.2,14.18,12.79,15.38v5.59Z"/><path class="cls-1" d="M963.21,530.15c-4.2.8-19.18,3.2-31,7.39v-13c-3.59,2.19-8.79,5-12.38,7.19-8,4.59-13.39,5.79-15.78,5.79-16,0-37.16-16-37.16-43.95,0-27.76,24.37-48.54,51.74-48.54,2.8,0,9.39.4,13.58,2.2v-58c0-12.78-1.4-13.18-15.58-14.38v-5.19c10-1.4,24-4.2,31.36-6.8V512c0,10.39,1.4,11.79,8.79,12.19l6.4.4Zm-31-67.12c-4.59-7-13.18-10.19-21-10.19-9.59,0-26.57,6.4-26.57,35.16,0,24.17,15,37,27.77,37.16,7.19,0,15-3.6,19.77-7.19Z"/><path d="M961,578.62c-.16-2-.31-4-.46-6.06,0-.48-.08-.95-.11-1.41q-.24-3.1-.46-6.18c-.06-.92-.13-1.85-.19-2.77,0-.5-.07-1-.1-1.48-.12-1.77-.22-3.52-.32-5.24a2.56,2.56,0,0,0-2.42-2.53H952.1a2.07,2.07,0,0,0-.49.07,18.67,18.67,0,0,1-3.92.22h-3.31l-.27,0H592.35v7.56h86.12v.09h3.15c0,19.58,0,38.89,0,58.18a3.12,3.12,0,0,1-1.18,2.16c-3.91,2.67-7.93,5.2-11.88,7.81-1.4.93-2.11.33-2.93-.9-2.88-4.33-5.88-8.57-8.82-12.87l-16.28-23.67c4.31-3.33,10.76-4,14.79-1.44s4.74,6.72,4.12,11.17c-.42,3.21,0,3.67,3.27,3.24a21.26,21.26,0,0,0,2.86-.56c5-1.39,7.29-5.15,6.15-10.28a13.39,13.39,0,0,0-6.2-8.54c-4.24-2.71-9-3.46-13.9-3.56-9.65-.22-18.51,1.89-25.76,8.83-12.61,12.06-10.77,38.29,8.9,47.6,11,5.2,22.11,4.6,33,0,4.74-2,9.13-4.73,13.89-7.26v34h12.47V560.92H711.5v0h87.25v26.77h-47c-3.16,0-4.43,1.23-3.7,4.34a7.66,7.66,0,0,0,2.87,4c10.56,7.64,16.11,17.75,15.32,30.94-.48,8.12-6.55,13.35-14.4,13-9.95-.43-17.58-5.1-23.72-12.59-6.63-8.09-10.87-17.44-14.36-27.2-.9-2.5-2.89-3.31-5.68-2.38s-3.78,2.8-2.82,5.5c4.43,12.47,10.3,24.16,19.42,33.92,9.5,10.15,20.92,15.26,35.11,13A24.09,24.09,0,0,0,780.7,626.6c.26-8.64-3.37-15.59-9-21.6-3-3.17-6.55-5.79-9.53-8.37H799V664.9h14.46v-104h30.14v104h14.52V560.94a5.71,5.71,0,0,1,1-.21c19.23,0,38.47,0,57.7,0a3.17,3.17,0,0,1,2.25,1.57,43.21,43.21,0,0,1,4.49,19.93c.1,10.84-5.91,19-15.24,21.39-2-2.59-3.77-5.3-6-7.49a10.92,10.92,0,0,0-13.44-1.63,10.58,10.58,0,0,0-5.07,11.79,42.24,42.24,0,0,0,4.89,11.83c7.63,11.86,17.4,22,27.57,31.67,5.67,5.41,11.73,10.41,17.68,15.53.72.62,2,1.29,2.74,1.08,3.38-.9,4.3-5.33,1.91-7.89-6.6-7.1-13.35-14.09-19.67-21.45s-11-15.63-15.28-24.43c1.13-.24,2.08-.44,3-.62a46.55,46.55,0,0,0,21-9.35c14.9-11.94,12-30.71,2.63-40.46-.38-.39-.68-.87-1.27-1.64h14.72a2.62,2.62,0,0,0,.38.09l.15,0c4.1.59,5.87,2.22,7.72,6.21,1.6,3.26,2.71,7.11,4.32,12.74a2.46,2.46,0,0,0,2.31,1.88,2.56,2.56,0,0,0,2.41-2.68A2.09,2.09,0,0,0,961,578.62ZM635.31,623.25c-3.73-7.9-3.47-16.06-.62-24.83l23.09,33.44C648.21,634.69,638.87,630.8,635.31,623.25Z"/><path d="M282.87,502.51c-1.13-13.66-13.79-25.27-29-28.11-2.91-.54-5.88-.79-9.87-1.32,7.59-3.21,13.55-6.94,18.48-12.11,13.69-14.35,11.39-35.83-5.2-47.2-7.93-5.43-17.18-7.72-26.67-8-21.73-.57-43.47-.44-65.21-.61-2.81,0-6.72,1.27-7.49,3.6s3.94,3.86,6.25,3.48a15.47,15.47,0,0,1,9,.69c1.94.61,2.31,6.27,2.3,8.27q0,25.14,0,50.27H81a2.54,2.54,0,0,0-2.42,1.81l.15-1.81h-.11c-.06,1-.13,2-.19,3-.09,1.44-.19,2.9-.3,4.37,0,.47-.07.93-.11,1.4-.06.87-.13,1.74-.2,2.61q-.22,2.91-.48,5.82c0,.45-.07.89-.11,1.33q-.24,2.87-.49,5.73a2.54,2.54,0,0,0,5,1c1.68-5.3,2.86-8.93,4.52-12,1.94-3.77,3.81-5.32,8.09-5.86h76.45a3.55,3.55,0,0,1,3.55,3.55v.3c0,15.53-.36,31.07.15,46.58a39.49,39.49,0,0,1-6.65,23.94,112.94,112.94,0,0,1-7.81,9.95,3.56,3.56,0,0,1-5.66-.28C142,544.77,130.79,528.4,119,511c-3.24-4.77-3.8-5.79.65-9.76.43-.38.86-.73,1.31-1.08,7-5.2,15.15-3.35,18.69,4.36a27.24,27.24,0,0,1,2.12,6.45c.75,4.23,1.33,8.48,1.93,12.72a3.57,3.57,0,0,0,3.87,3c5.7-.5,10.54-2.71,13.36-6.16,6-7.32,3.12-18.92-6.4-23.91A51,51,0,0,0,141,492c-19.61-3.91-37.66,2.51-47.31,16.91-9.17,13.69-11.22,28.67-6.85,44.11,8.61,30.38,48.72,37,71.1,20.48,4-2.93,13.87-12.41,16-16.65,1.39-2.78.58,5.54.59,8.88,0,8.38.09,16.75.1,25.12a4.4,4.4,0,0,0,.07.73l0,2.72c0,11.82-1.92,13.63-23.71,14.58a2.2,2.2,0,0,0-2.11,2.2h0a2.2,2.2,0,0,0,2.2,2.21h70a2.21,2.21,0,0,0,.09-4.41c-22.3-.95-24.22-2.9-24.22-14.58l-.08-9.13q0-16.65,0-33.26c10.72-.45,21.36-1,32.81-1.28A68,68,0,0,0,260.16,543C277.6,533.68,284.27,519.32,282.87,502.51Zm-138.18,70c-10.66,3.44-23,0-29-9-8.91-13.21-9.7-27.26-6.71-41.56a15.05,15.05,0,0,1,3.09-5.41c10.4,15.48,24.14,35.12,34.55,50.61A3.56,3.56,0,0,1,144.69,572.55Zm51.82-155c13.93-1,27.71-1.52,41,3.36,9.18,3.37,11.51,10.81,12.29,19,1.79,18.69-11.11,27.16-27,29.75-8.52,1.39-17.38,1-26.29,1.43Zm63.91,92c-.4,13.77-8.29,23-22.88,27.57-9.09,2.86-30.33,3.51-40.64,1.19q0-27.54.06-55.16c.85-1.6,2.91-1.61,7.86-1.51,10.85.21,21.77.07,32.53,1.17C254.8,484.54,260.86,494.14,260.42,509.5Z"/></svg>